<?xml version="1.0" encoding="UTF-8" standalone="no"?>
<!-- Created with Inkscape (http://www.inkscape.org/) -->

<svg
   width="337.76468mm"
   height="10.691298mm"
   viewBox="0 0 337.76467 10.691298"
   version="1.1"
   id="svg1"
   xml:space="preserve"
   inkscape:version="1.3 (0e150ed6c4, 2023-07-21)"
   sodipodi:docname="berm-blue3.svg"
   xmlns:inkscape="http://www.inkscape.org/namespaces/inkscape"
   xmlns:sodipodi="http://sodipodi.sourceforge.net/DTD/sodipodi-0.dtd"
   xmlns="http://www.w3.org/2000/svg"
   xmlns:svg="http://www.w3.org/2000/svg"><sodipodi:namedview
     id="namedview1"
     pagecolor="#ffffff"
     bordercolor="#999999"
     borderopacity="1"
     inkscape:showpageshadow="2"
     inkscape:pageopacity="0"
     inkscape:pagecheckerboard="0"
     inkscape:deskcolor="#d1d1d1"
     inkscape:document-units="mm"
     inkscape:zoom="1.0449705"
     inkscape:cx="638.77399"
     inkscape:cy="-42.584933"
     inkscape:window-width="2116"
     inkscape:window-height="1111"
     inkscape:window-x="158"
     inkscape:window-y="133"
     inkscape:window-maximized="0"
     inkscape:current-layer="layer1" /><defs
     id="defs1"><inkscape:path-effect
       effect="simplify"
       id="path-effect3"
       is_visible="true"
       lpeversion="1.3"
       threshold="17.2414"
       steps="1"
       smooth_angles="360"
       helper_size="0"
       simplify_individual_paths="false"
       simplify_just_coalesce="false" /><inkscape:path-effect
       effect="simplify"
       id="path-effect2"
       is_visible="true"
       lpeversion="1.3"
       threshold="17.2414"
       steps="1"
       smooth_angles="360"
       helper_size="0"
       simplify_individual_paths="false"
       simplify_just_coalesce="false" /></defs><g
     inkscape:label="Layer 1"
     inkscape:groupmode="layer"
     id="layer1"
     transform="translate(64.058823,-119.22723)"><g
       id="g5"
       transform="matrix(1.0172414,0,0,1.0172414,-4.8151071,-2.7864502)"><path
         style="opacity:0.998;fill:#2dc7cd;fill-opacity:0.995204;stroke:none;stroke-width:2.90595;stroke-opacity:0.384314"
         d="m -58.488491,179.54512 c 0,0 26.871991,-9.55654 40.909729,-10.15671 12.1266124,-0.51846 23.9825116,7.69048 35.960106,5.7256 11.41547,-1.87267 19.165767,-15.96102 30.732716,-16.12075 14.729964,-0.20342 24.991714,18.43351 39.688627,19.44047 19.306853,1.32282 35.781813,-18.29747 55.133623,-18.18858 17.93308,0.1009 33.01245,16.13032 50.89873,17.42899 15.46244,1.12268 29.80826,-9.1265 45.71622,-8.55301 14.07846,0.50754 38.72494,10.42399 38.72494,10.42399"
         id="path4"
         sodipodi:nodetypes="caaaaaaac" /><path
         style="opacity:0.998;fill:#ffffff;fill-opacity:1;stroke:none;stroke-width:0.366517;stroke-opacity:1"
         d="m 156.67508,162.08656 c -0.38881,-0.0457 -0.67113,-0.15687 -1.066,-0.41993 -0.8627,-0.57469 -1.31346,-1.7318 -1.13142,-2.90438 0.0353,-0.22702 0.0537,-0.45853 0.0411,-0.51449 -0.0266,-0.11761 -0.4037,-0.52434 -0.82979,-0.89498 -0.31941,-0.27786 -0.62109,-0.6196 -0.64663,-0.73254 -0.009,-0.0388 0.004,-0.27357 0.0283,-0.52176 l 0.0442,-0.45124 -0.35217,-0.1956 c -0.33965,-0.18865 -0.35384,-0.20294 -0.39883,-0.40185 -0.0421,-0.18631 -0.1944,-0.51951 -0.30896,-0.67608 -0.0302,-0.0413 -0.006,-0.0961 0.0756,-0.17322 l 0.11973,-0.1129 0.3104,0.0853 c 0.17071,0.0469 0.31877,0.0721 0.32899,0.0559 0.0103,-0.0163 -0.0637,-0.25898 -0.16523,-0.53928 -0.10105,-0.2804 -0.28334,-0.8094 -0.40498,-1.17557 -0.2329,-0.7011 -0.51456,-1.43636 -0.57304,-1.49595 -0.0191,-0.0195 -0.0641,-0.0139 -0.10007,0.0123 -0.0359,0.0262 -0.17077,0.0869 -0.29963,0.13482 -0.13962,0.052 -0.38969,0.21098 -0.619,0.39353 -0.33792,0.26903 -0.37904,0.31691 -0.33788,0.39345 0.14084,0.26184 0.2848,0.72913 0.34522,1.12016 0.0588,0.38098 0.0562,0.48788 -0.0198,0.81263 -0.2936,1.25379 -1.19499,2.12525 -2.50467,2.42146 -1.09242,0.24708 -2.13345,0.0606 -3.01742,-0.5404 -0.42777,-0.29087 -0.88366,-0.80859 -1.07336,-1.21896 -0.16035,-0.34679 -0.29043,-1.12905 -0.24707,-1.48493 0.0709,-0.58134 0.44537,-1.2914 0.92295,-1.75008 0.46814,-0.44962 1.19536,-0.81368 1.80606,-0.90416 1.25312,-0.18562 2.37312,0.13071 3.25578,0.91965 0.16926,0.15128 0.21656,0.17037 0.34842,0.14055 0.23013,-0.052 0.67721,-0.31899 0.86769,-0.51806 0.0931,-0.0972 0.33392,-0.26763 0.53526,-0.37863 0.20133,-0.11105 0.41759,-0.24972 0.48054,-0.30827 0.13004,-0.12086 0.12915,-0.24307 -0.002,-0.21363 -0.11266,0.0254 -0.15895,-0.0839 -0.11198,-0.2644 0.0311,-0.11955 0.17617,-0.24807 0.8913,-0.78977 0.99192,-0.75136 1.07872,-0.85334 1.09785,-1.2898 0.0114,-0.26054 0.041,-0.34293 0.22468,-0.62502 0.11633,-0.1787 0.21525,-0.37285 0.21981,-0.43142 0.0191,-0.24585 -0.28826,-0.52343 -0.75909,-0.68538 l -0.2072,-0.0713 -0.10509,-0.33681 c -0.0578,-0.18525 -0.1492,-0.47743 -0.20324,-0.64927 -0.054,-0.17186 -0.097,-0.36528 -0.0952,-0.4299 0.004,-0.16193 0.22117,-0.53495 0.37598,-0.64522 0.42786,-0.30474 1.17626,-0.11697 1.44125,0.36163 0.0873,0.15761 0.26011,0.84811 0.31477,1.25707 0.0203,0.15218 0.025,0.15575 0.16711,0.11645 0.0804,-0.0223 0.32645,-0.13658 0.54678,-0.25418 l 0.40062,-0.21375 0.46227,0.0195 c 0.532,0.0225 0.94505,0.14516 1.26248,0.37494 0.29868,0.2162 0.32454,0.32109 0.19096,0.77449 -0.0857,0.29087 -0.0958,0.30355 -0.37025,0.46586 -0.39699,0.23475 -0.40347,0.25893 -0.17073,0.63777 0.10562,0.17185 0.26828,0.46414 0.36156,0.64949 0.0933,0.18534 0.28488,0.51607 0.42579,0.73492 0.45879,0.71259 0.5613,0.9315 0.6934,1.48074 0.13921,0.57924 0.13186,0.61924 -0.15189,0.82469 -0.20402,0.14765 -0.32646,0.30979 -0.3759,0.49763 -0.0404,0.15325 -0.9668,0.92485 -1.24105,1.0336 -0.45815,0.18165 -0.46189,0.18741 -0.24424,0.37267 0.0751,0.0639 0.20098,0.19506 0.27985,0.29152 0.0788,0.0965 0.30197,0.30575 0.49577,0.46511 0.52797,0.43413 0.59637,0.53978 0.46782,0.72261 -0.17751,0.25247 -0.94035,-0.071 -1.02557,-0.43484 -0.0592,-0.25281 -0.11116,-0.24444 -0.51279,0.0827 -0.30198,0.24593 -0.37738,0.33162 -0.39005,0.44324 -0.0117,0.10313 -0.0589,0.16447 -0.18519,0.24084 -0.22369,0.13528 -0.23945,0.26413 -0.0784,0.64091 0.0666,0.15588 0.18584,0.46084 0.26484,0.67768 l 0.14372,0.39427 0.23751,0.0224 c 0.84358,0.0793 1.4485,0.44519 1.8991,1.14865 0.41916,0.65438 0.54344,1.18881 0.46516,2.00039 -0.13754,1.4265 -1.31954,2.56682 -2.51508,2.4264 z m 1.23509,-0.95514 c 0.47264,-0.31087 0.8372,-1.05025 0.85964,-1.74346 0.0266,-0.82276 -0.4143,-1.67038 -1.07697,-2.07032 -0.25697,-0.15508 -0.68889,-0.27553 -0.85405,-0.23818 -0.0259,0.006 0.0529,0.43037 0.20423,1.09923 l 0.24646,1.08967 -0.11322,0.17335 -0.11322,0.17336 -0.16648,-0.11258 c -0.0915,-0.0619 -0.46078,-0.38889 -0.82049,-0.72661 -0.85451,-0.8023 -0.7992,-0.75966 -0.8869,-0.68371 -0.19202,0.16633 -0.30172,0.95264 -0.21055,1.50917 0.17724,1.08191 0.97963,1.87117 1.8889,1.85799 0.30181,-0.004 0.7789,-0.15444 1.0427,-0.3279 z m -1.36428,-2.77351 c -0.005,-0.094 -0.063,-0.40592 -0.12766,-0.69318 l -0.11759,-0.52229 -0.18765,0.0703 c -0.20081,0.0753 -0.55231,0.33318 -0.53833,0.39499 0.0238,0.10516 0.88232,0.94342 0.95047,0.928 0.017,-0.004 0.0263,-0.0839 0.0208,-0.17786 z m -1.79393,-0.46274 c 0.1246,-0.13719 0.0568,-0.33552 -0.18709,-0.54749 -0.26231,-0.22798 -0.69047,-0.31521 -0.64909,-0.13225 0.0248,0.10972 0.6569,0.79218 0.72038,0.77782 0.0185,-0.004 0.0706,-0.0484 0.11578,-0.0981 z m 0.49335,-0.72083 c -0.0273,-0.11607 -0.59477,-1.05064 -0.6402,-1.05517 -0.0326,-0.003 -0.0592,0.0782 -0.0637,0.19545 -0.004,0.11056 -0.0223,0.23 -0.04,0.26542 -0.0547,0.10937 0.0577,0.25752 0.34926,0.46042 0.24761,0.17228 0.41769,0.22996 0.39476,0.13387 z m 0.48239,-0.36103 0.27891,-0.1649 -0.0857,-0.25976 c -0.13999,-0.42403 -0.14952,-0.43624 -0.37051,-0.47254 -0.20625,-0.0339 -0.76927,0.0206 -0.75735,0.0733 0.004,0.0157 0.12722,0.24111 0.27494,0.50097 0.14767,0.25988 0.27047,0.48124 0.27288,0.49192 0.009,0.0385 0.11299,-0.007 0.3869,-0.16891 z m 0.62953,-0.30608 c 0.0176,-0.0524 -0.24573,-0.72926 -0.29596,-0.76098 -0.0806,-0.0509 -0.0927,0.12627 -0.0281,0.41487 0.0361,0.1612 0.0846,0.32167 0.10802,0.35656 0.0432,0.0647 0.19335,0.0575 0.21607,-0.0104 z m -0.3384,-2.13 c 0.0389,-0.0461 0.11455,-0.0937 0.16814,-0.1058 0.12713,-0.0287 0.88575,-0.65074 0.89817,-0.7364 0.0146,-0.10071 -0.30064,-0.59469 -0.39635,-0.62107 -0.0949,-0.0261 -1.00379,0.0682 -1.02811,0.10667 -0.0598,0.0947 0.0166,1.22426 0.093,1.37534 0.0573,0.11346 0.15973,0.10622 0.26513,-0.0188 z m -7.77447,1.3657 c 0.82033,-0.28693 1.50018,-0.95273 1.73838,-1.70239 0.1415,-0.44533 0.12959,-1.27012 -0.0227,-1.57115 -0.0477,-0.0942 -0.0743,-0.10407 -0.17043,-0.0634 -0.33194,0.14039 -2.08061,1.05905 -2.20666,1.15922 -0.14352,0.11407 -0.15045,0.11543 -0.28393,0.056 -0.0752,-0.0335 -0.16473,-0.0888 -0.19882,-0.12296 -0.0859,-0.0859 -0.0549,-0.29074 0.065,-0.43066 0.0851,-0.0993 0.11523,-0.10983 0.26139,-0.0915 0.15063,0.0188 0.24888,-0.0217 1.11354,-0.4603 0.52158,-0.26455 0.99006,-0.50865 1.04108,-0.54246 l 0.0928,-0.0615 -0.20251,-0.23459 c -0.38655,-0.44779 -1.21597,-0.82059 -1.87298,-0.84187 -0.36164,-0.0117 -1.20933,0.17981 -1.53714,0.34737 -0.41072,0.20987 -0.71289,0.48586 -1.00336,0.91643 -0.31021,0.45983 -0.40673,0.74777 -0.42093,1.25584 -0.0417,1.492 1.10449,2.56962 2.72856,2.56532 0.34737,-9.6e-4 0.41125,-0.0139 0.87879,-0.17734 z m 5.53221,-1.60003 c 0.013,-0.0916 -0.0297,-0.22058 -0.16559,-0.49957 -0.23847,-0.48988 -0.3518,-1.07622 -0.27181,-1.40622 l 0.0533,-0.21986 -0.52471,-0.65765 c -0.28859,-0.36171 -0.55672,-0.66228 -0.59584,-0.66796 -0.16972,-0.0246 -0.15164,0.0897 0.15455,0.97659 0.63795,1.84776 0.89732,2.5265 0.99049,2.59201 0.13908,0.0978 0.33827,0.0328 0.35955,-0.11731 z m 0.11801,-2.89743 c 0.004,-0.60112 0.0728,-0.97592 0.22225,-1.21917 l 0.12345,-0.20087 -0.31991,-0.11576 c -0.17595,-0.0637 -0.34275,-0.11103 -0.37067,-0.10525 -0.0279,0.006 -0.14538,0.0836 -0.26102,0.17307 -0.11565,0.0894 -0.25628,0.17316 -0.3125,0.18613 -0.0905,0.0208 -0.0956,0.0378 -0.044,0.14758 0.051,0.1087 0.0426,0.13906 -0.0677,0.24603 -0.0692,0.0671 -0.16044,0.12989 -0.2027,0.13955 -0.0423,0.01 -0.0695,0.0501 -0.0605,0.0898 0.009,0.0397 0.21761,0.32501 0.46362,0.63401 l 0.44729,0.56182 0.18957,-0.043 0.18956,-0.043 z m 0.3822,-2.30289 c -0.13182,-0.41101 -0.19588,-0.56597 -0.2404,-0.58126 -0.0653,-0.0225 -0.31437,0.19577 -0.53407,0.46776 -0.14048,0.1739 -0.18001,0.2579 -0.1538,0.32672 0.0307,0.0806 0.0718,0.088 0.31652,0.0567 0.15466,-0.0198 0.297,-0.026 0.31627,-0.0138 0.0193,0.0121 0.10841,0.006 0.19807,-0.0148 l 0.163,-0.0369 z"
         id="path4-4" /><path
         style="opacity:0.998;fill:#ffffff;fill-opacity:1;stroke:none;stroke-width:0.366517;stroke-opacity:1"
         d="m 56.332836,159.74262 c -0.35827,0.15782 -0.65797,0.20519 -1.1317,0.17875 -1.03499,-0.0577 -2.01034,-0.82635 -2.44817,-1.92925 -0.0847,-0.21356 -0.18628,-0.42242 -0.22552,-0.46425 -0.0826,-0.0879 -0.61386,-0.24715 -1.16907,-0.35047 -0.4162,-0.0775 -0.84953,-0.21898 -0.92882,-0.30336 -0.0274,-0.0289 -0.1353,-0.23781 -0.24024,-0.46403 l -0.19077,-0.41131 -0.40272,0.01 c -0.3884,0.01 -0.40788,0.005 -0.54754,-0.14405 -0.13078,-0.13921 -0.43103,-0.34913 -0.60917,-0.42597 -0.047,-0.0203 -0.0539,-0.0798 -0.0227,-0.18763 l 0.0459,-0.15802 0.31078,-0.0839 c 0.17091,-0.0462 0.3113,-0.0995 0.31189,-0.11868 6.1e-4,-0.0193 -0.18625,-0.19089 -0.41592,-0.38097 -0.2293,-0.19041 -0.65471,-0.55386 -0.94526,-0.80775 -0.55631,-0.48611 -1.17197,-0.97693 -1.25259,-0.99862 -0.0264,-0.007 -0.0623,0.0205 -0.08,0.0614 -0.0177,0.0408 -0.1031,0.16151 -0.18985,0.26816 -0.094,0.11563 -0.22884,0.37948 -0.33388,0.65311 -0.15479,0.40325 -0.16594,0.46537 -0.0917,0.51046 0.25418,0.15423 0.61526,0.48394 0.86566,0.7903 0.2439,0.29852 0.29588,0.39197 0.39509,0.7104 0.38287,1.22947 0.048,2.4377 -0.93048,3.35724 -0.81617,0.767 -1.80795,1.13428 -2.8746,1.06466 -0.5162,-0.0337 -1.17168,-0.24869 -1.54331,-0.50615 -0.31408,-0.21755 -0.82294,-0.82575 -0.96607,-1.15445 -0.23374,-0.53698 -0.27114,-1.33886 -0.0922,-1.97639 0.17542,-0.62494 0.61752,-1.30753 1.09795,-1.69525 0.98584,-0.79554 2.11153,-1.09097 3.27238,-0.85871 0.22261,0.0445 0.27305,0.037 0.37157,-0.0556 0.17196,-0.16154 0.42186,-0.61839 0.48505,-0.88657 0.0309,-0.13099 0.15205,-0.40001 0.26927,-0.59779 0.11719,-0.19782 0.23324,-0.42701 0.2578,-0.5094 0.0508,-0.17012 -0.012,-0.27499 -0.11008,-0.1831 -0.0842,0.079 -0.17954,0.008 -0.23061,-0.17108 -0.0338,-0.1188 0.026,-0.30314 0.3676,-1.1327 0.47379,-1.15064 0.49687,-1.28256 0.29199,-1.66842 -0.12232,-0.23032 -0.13859,-0.31634 -0.12336,-0.65262 0.01,-0.21301 -0.004,-0.4305 -0.0294,-0.48329 -0.10823,-0.22157 -0.51391,-0.30491 -1.00182,-0.20569 l -0.21474,0.0436 -0.26139,-0.23697 c -0.14377,-0.13034 -0.37074,-0.33579 -0.50447,-0.45648 -0.1337,-0.12073 -0.26886,-0.26562 -0.30008,-0.32222 -0.0787,-0.14159 -0.0807,-0.57322 -0.003,-0.74677 0.21419,-0.47964 0.95442,-0.69739 1.42554,-0.41932 0.15517,0.0916 0.65432,0.59901 0.90885,0.92374 0.0947,0.12086 0.10054,0.12155 0.20308,0.0156 0.058,-0.06 0.21208,-0.28328 0.34232,-0.49638 l 0.23686,-0.38741 0.40829,-0.21765 c 0.46991,-0.25044 0.8881,-0.35422 1.27821,-0.31718 0.36707,0.0348 0.44256,0.11212 0.55739,0.57063 0.0737,0.29415 0.0714,0.3102 -0.0828,0.58928 -0.22307,0.40366 -0.21639,0.42779 0.17633,0.63624 0.17819,0.0945 0.46662,0.26395 0.64102,0.37638 0.17441,0.11241 0.50727,0.30028 0.7397,0.41742 0.75682,0.38145 0.9562,0.51812 1.34861,0.92447 0.41376,0.42861 0.42772,0.46681 0.28737,0.78779 -0.10094,0.23072 -0.12423,0.43256 -0.0716,0.61953 0.0429,0.15256 -0.36415,1.28741 -0.54535,1.52023 -0.30272,0.38892 -0.30302,0.39579 -0.0215,0.44506 0.0971,0.017 0.27214,0.0662 0.38904,0.10931 0.11686,0.0432 0.41532,0.11035 0.66317,0.1494 0.67521,0.10636 0.78774,0.16272 0.76968,0.38549 -0.0249,0.30762 -0.84643,0.41575 -1.10442,0.1454 -0.17924,-0.18786 -0.21977,-0.15429 -0.39999,0.33135 -0.13553,0.36512 -0.15705,0.47721 -0.11135,0.57983 0.0422,0.0948 0.0327,0.17162 -0.0375,0.30149 -0.12417,0.23005 -0.0724,0.34909 0.2575,0.59213 0.13646,0.10056 0.39389,0.30291 0.57196,0.44972 l 0.32383,0.2669 0.21605,-0.10115 c 0.76725,-0.35951 1.47417,-0.35098 2.2193,0.0267 0.69314,0.35138 1.0713,0.74894 1.41546,1.48809 0.60497,1.29916 0.16464,2.88143 -0.93694,3.36677 z m 0.58,-1.44959 c 0.24967,-0.50764 0.18886,-1.32977 -0.14339,-1.93858 -0.39437,-0.72257 -1.20425,-1.22946 -1.97821,-1.23805 -0.30012,-0.003 -0.73346,0.11194 -0.85685,0.22789 -0.0193,0.0183 0.26387,0.34408 0.73353,0.84378 l 0.76507,0.81411 -0.01,0.20682 -0.01,0.20684 -0.20057,-0.0126 c -0.11026,-0.007 -0.59436,-0.10146 -1.07566,-0.21008 -1.14336,-0.25805 -1.07407,-0.24936 -1.11113,-0.13942 -0.0811,0.24074 0.22313,0.97405 0.58397,1.40744 0.70149,0.84254 1.79332,1.11579 2.57027,0.64326 0.25809,-0.15652 0.59296,-0.52815 0.73233,-0.81144 z m -2.58247,-1.69837 c -0.052,-0.0785 -0.26017,-0.31788 -0.4616,-0.53266 l -0.36624,-0.39048 -0.12607,0.15576 c -0.13487,0.16674 -0.30701,0.56727 -0.26361,0.61345 0.0738,0.0786 1.2389,0.36557 1.28982,0.31771 0.0126,-0.0121 -0.0199,-0.0856 -0.0723,-0.16383 z m -1.78077,0.51106 c 0.0378,-0.18143 -0.12122,-0.31797 -0.43892,-0.37696 -0.3417,-0.0634 -0.75494,0.0785 -0.62649,0.21523 0.077,0.082 0.96793,0.34956 1.01535,0.30499 0.0139,-0.0128 0.0363,-0.0775 0.05,-0.14327 z m 0.0596,-0.87146 c -0.0824,-0.0862 -1.04547,-0.60382 -1.08692,-0.58468 -0.0296,0.0139 -0.0113,0.0974 0.0442,0.20075 0.0526,0.0973 0.0974,0.20953 0.10014,0.24904 0.008,0.122 0.18034,0.19267 0.53452,0.21966 0.30078,0.0229 0.47662,-0.0137 0.40812,-0.0848 z m 0.23263,-0.55581 0.15674,-0.28358 -0.20561,-0.1804 c -0.33571,-0.29445 -0.35011,-0.30014 -0.55898,-0.21934 -0.19495,0.0754 -0.65254,0.40792 -0.61554,0.44729 0.0114,0.0115 0.23194,0.14328 0.49104,0.29231 0.25908,0.14908 0.47718,0.27757 0.48468,0.28555 0.0273,0.0286 0.0938,-0.0633 0.24777,-0.3418 z m 0.38731,-0.58308 c -0.0114,-0.0541 -0.58165,-0.50387 -0.64103,-0.50574 -0.0953,-0.003 -0.0159,0.15584 0.1862,0.37181 0.11287,0.12061 0.23606,0.23431 0.27394,0.25251 0.0701,0.0339 0.1958,-0.0485 0.18094,-0.11856 z m -1.37195,-1.66408 c 0.0101,-0.0595 0.0512,-0.13885 0.0913,-0.17646 0.095,-0.0892 0.43332,-1.01007 0.40058,-1.0902 -0.0385,-0.0942 -0.56072,-0.36004 -0.65659,-0.33423 -0.095,0.0256 -0.83051,0.56788 -0.83196,0.61337 -0.004,0.11195 0.63524,1.04669 0.77771,1.13815 0.10692,0.0687 0.19153,0.0105 0.21896,-0.15067 z m -6.00765,5.12013 c 0.56146,-0.66335 0.80969,-1.58197 0.63477,-2.34887 -0.10392,-0.45557 -0.53251,-1.16036 -0.81644,-1.34256 -0.0889,-0.057 -0.11681,-0.052 -0.17903,0.0318 -0.21488,0.28935 -1.25601,1.96799 -1.31384,2.11825 -0.0658,0.1711 -0.0711,0.17579 -0.2163,0.19227 -0.0818,0.009 -0.18701,0.007 -0.23371,-0.005 -0.1176,-0.0305 -0.19478,-0.22273 -0.16241,-0.40413 0.023,-0.12874 0.0436,-0.1531 0.17887,-0.21143 0.13935,-0.0602 0.20349,-0.14493 0.72623,-0.96148 0.31534,-0.49254 0.59529,-0.94052 0.62211,-0.99553 l 0.0488,-0.10007 -0.29352,-0.0995 c -0.56025,-0.18987 -1.46416,-0.0905 -2.04118,0.2244 -0.31761,0.17333 -0.95105,0.76832 -1.14858,1.07899 -0.24753,0.38919 -0.36797,0.7803 -0.39993,1.29871 -0.0341,0.55363 0.0287,0.85074 0.27417,1.29582 0.72079,1.307 2.25517,1.6544 3.65267,0.82699 0.29889,-0.17701 0.34738,-0.22056 0.66743,-0.59855 z m 3.95634,-4.18484 c -0.0353,-0.0855 -0.13747,-0.17504 -0.39609,-0.34656 -0.45398,-0.30125 -0.84904,-0.74909 -0.94747,-1.07407 l -0.0656,-0.21652 -0.78576,-0.30066 c -0.43217,-0.16536 -0.8157,-0.28841 -0.8523,-0.27347 -0.15875,0.0649 -0.0852,0.15422 0.62851,0.76328 1.48697,1.2689 2.05475,1.72232 2.16828,1.73152 0.16946,0.0137 0.30817,-0.1433 0.25037,-0.28346 z m -1.36784,-2.55696 c -0.30143,-0.52009 -0.43223,-0.878 -0.4268,-1.16344 l 0.005,-0.23573 -0.33442,0.0625 c -0.18395,0.0343 -0.35171,0.0781 -0.37284,0.0973 -0.021,0.0193 -0.0829,0.14578 -0.13718,0.28154 -0.0543,0.1357 -0.13304,0.27922 -0.17492,0.31891 -0.0674,0.0638 -0.0632,0.0811 0.0369,0.14951 0.0991,0.0678 0.10725,0.0982 0.0664,0.24637 -0.0256,0.0929 -0.0724,0.19332 -0.10392,0.22308 -0.0314,0.0301 -0.0345,0.0784 -0.007,0.10807 0.0279,0.0297 0.35238,0.16974 0.72113,0.31127 l 0.67043,0.25734 0.14157,-0.13321 0.14156,-0.1332 z m -0.8386,-2.17856 c -0.32207,-0.28736 -0.45587,-0.38842 -0.502,-0.37902 -0.0677,0.0137 -0.17164,0.32817 -0.22303,0.67401 -0.0329,0.22112 -0.0243,0.31356 0.0331,0.35958 0.0673,0.0539 0.10652,0.0394 0.30155,-0.11167 0.12325,-0.0955 0.24278,-0.17304 0.26557,-0.1723 0.0228,6.4e-4 0.0965,-0.0498 0.1632,-0.11321 l 0.12176,-0.11448 z"
         id="path4-4-3" /><path
         style="opacity:0.998;fill:#ffffff;fill-opacity:1;stroke:none;stroke-width:0.366517;stroke-opacity:1"
         d="m 118.29776,167.66103 c -0.26985,0.28361 -0.52813,0.44284 -0.97552,0.60089 -0.97734,0.34543 -2.1735,0.0118 -3.0024,-0.83732 -0.16044,-0.16443 -0.33462,-0.31807 -0.38693,-0.34155 -0.1101,-0.0493 -0.6617,0.008 -1.21388,0.12684 -0.41394,0.0888 -0.86832,0.12526 -0.97401,0.0778 -0.0364,-0.0161 -0.21646,-0.16734 -0.40045,-0.33567 l -0.33449,-0.30609 -0.36779,0.16437 c -0.35458,0.15883 -0.37447,0.16173 -0.56077,0.078 -0.17432,-0.0781 -0.53226,-0.15615 -0.72624,-0.15844 -0.0511,-2.4e-4 -0.0805,-0.0529 -0.0931,-0.16442 l -0.018,-0.16354 0.25451,-0.19712 c 0.13993,-0.1085 0.24908,-0.21159 0.24216,-0.22958 -0.007,-0.0182 -0.24539,-0.10442 -0.53056,-0.19137 -0.28495,-0.0874 -0.81753,-0.2589 -1.18346,-0.38128 -0.70065,-0.23431 -1.45785,-0.45009 -1.5406,-0.43905 -0.0271,0.004 -0.0494,0.0431 -0.0502,0.0874 -0.001,0.0445 -0.0329,0.18876 -0.0719,0.3206 -0.0422,0.14287 -0.065,0.43835 -0.0565,0.73132 0.0125,0.43176 0.0263,0.49337 0.11197,0.50639 0.29398,0.0444 0.7542,0.20961 1.10329,0.39586 0.34007,0.18153 0.42404,0.24774 0.63826,0.5034 0.82691,0.98709 0.98331,2.23108 0.43455,3.45657 -0.45773,1.02221 -1.23149,1.74319 -2.24262,2.08985 -0.48935,0.16773 -1.17705,0.22185 -1.61918,0.12739 -0.37365,-0.0798 -1.07751,-0.44503 -1.33622,-0.69322 -0.42256,-0.4055 -0.76596,-1.13109 -0.84641,-1.78837 -0.0788,-0.64428 0.0662,-1.44449 0.36021,-1.98736 0.60331,-1.11389 1.52833,-1.82015 2.68906,-2.05297 0.22258,-0.0447 0.26623,-0.071 0.32146,-0.19448 0.0965,-0.21528 0.1511,-0.73317 0.10611,-1.00499 -0.0224,-0.13271 -0.0138,-0.4277 0.0182,-0.65538 0.0319,-0.2277 0.0508,-0.48391 0.0417,-0.5694 -0.019,-0.17653 -0.11697,-0.24915 -0.17211,-0.12657 -0.0473,0.1054 -0.1626,0.0766 -0.27873,-0.0691 -0.077,-0.0966 -0.0928,-0.28974 -0.0971,-1.18687 -0.006,-1.24437 -0.0355,-1.375 -0.37323,-1.65215 -0.2016,-0.16543 -0.24974,-0.23854 -0.36522,-0.55475 -0.0729,-0.20042 -0.16953,-0.39573 -0.21331,-0.43467 -0.18522,-0.16277 -0.59171,-0.0834 -1.00374,0.19605 l -0.18138,0.12296 -0.33249,-0.118 c -0.18288,-0.0649 -0.47148,-0.16706 -0.64138,-0.22692 -0.16989,-0.0599 -0.35043,-0.14157 -0.40105,-0.18177 -0.12717,-0.10034 -0.29528,-0.49789 -0.29043,-0.68799 0.0129,-0.52513 0.61213,-1.01121 1.15399,-0.9361 0.17847,0.0247 0.83457,0.30073 1.19455,0.50235 0.13394,0.075 0.13959,0.0735 0.19341,-0.0639 0.0305,-0.0777 0.0866,-0.34312 0.12469,-0.58994 l 0.0693,-0.44875 0.29295,-0.35812 c 0.3372,-0.4121 0.68311,-0.66899 1.0574,-0.78507 0.35213,-0.10933 0.45154,-0.0673 0.73418,0.31188 0.18132,0.24306 0.18538,0.25876 0.15054,0.57571 -0.0503,0.45843 -0.0349,0.47813 0.40779,0.51921 0.20086,0.0186 0.5323,0.0639 0.73655,0.10041 0.20424,0.0365 0.58379,0.0817 0.84341,0.10027 0.84535,0.0605 1.08199,0.10981 1.60066,0.33365 0.54692,0.23615 0.57452,0.26601 0.56864,0.6163 -0.004,0.25178 0.052,0.44703 0.17258,0.59928 0.0984,0.12426 0.1599,1.32834 0.0824,1.613 -0.12953,0.47552 -0.12717,0.48197 0.15156,0.419 0.0961,-0.0218 0.27668,-0.0435 0.40113,-0.049 0.1245,-0.005 0.42575,-0.0583 0.66954,-0.1176 0.66407,-0.16199 0.78964,-0.15325 0.85877,0.0592 0.0955,0.29348 -0.62096,0.70972 -0.96318,0.55962 -0.23777,-0.10432 -0.26224,-0.0578 -0.24149,0.45985 0.0156,0.38916 0.0389,0.50088 0.12064,0.57799 0.0755,0.0713 0.0962,0.14576 0.0815,0.29267 -0.0259,0.26012 0.0676,0.35004 0.46573,0.44723 0.16466,0.0402 0.48017,0.12781 0.70106,0.1947 l 0.40165,0.12155 0.16039,-0.17657 c 0.56954,-0.62735 1.22521,-0.89177 2.05833,-0.83026 0.775,0.0573 1.27713,0.27847 1.87945,0.82801 1.05873,0.96587 1.26188,2.59566 0.43225,3.46789 z m -0.0232,-1.56115 c 0.0348,-0.56464 -0.33794,-1.29991 -0.87907,-1.73374 -0.64228,-0.51491 -1.58491,-0.67071 -2.30246,-0.3805 -0.27811,0.11283 -0.63374,0.38584 -0.70291,0.5404 -0.0108,0.0243 0.37605,0.2159 1.00196,0.49612 l 1.01963,0.45657 0.0705,0.19471 0.0705,0.19473 -0.18996,0.0656 c -0.10447,0.036 -0.58759,0.13527 -1.07357,0.22053 -1.15452,0.2023 -1.08726,0.18358 -1.07909,0.29935 0.0179,0.2534 0.58112,0.81293 1.08106,1.07387 0.97191,0.50731 2.08474,0.33889 2.61973,-0.39627 0.17787,-0.24388 0.34377,-0.71581 0.36326,-1.03092 z m -3.0374,-0.57253 c -0.0783,-0.0524 -0.36254,-0.19312 -0.63116,-0.31373 l -0.4884,-0.21927 -0.0564,0.1923 c -0.0603,0.20582 -0.0648,0.64176 -0.007,0.66765 0.0983,0.0441 1.28413,-0.13985 1.31268,-0.20363 0.007,-0.0157 -0.0513,-0.0713 -0.12983,-0.12335 z m -1.44649,1.15759 c -0.035,-0.18198 -0.23435,-0.24674 -0.55025,-0.17879 -0.33975,0.0731 -0.66644,0.36324 -0.49551,0.43963 0.10266,0.046 1.02789,-0.0503 1.05447,-0.10974 0.008,-0.0175 0.003,-0.0856 -0.009,-0.15148 z m -0.28069,-0.82717 c -0.10925,-0.0479 -1.19738,-0.1545 -1.22826,-0.12086 -0.0222,0.0239 0.0271,0.0942 0.11811,0.16824 0.0859,0.0695 0.17059,0.15583 0.18833,0.19124 0.0544,0.10951 0.24064,0.10833 0.57788,-0.003 0.28641,-0.0947 0.43457,-0.19624 0.34394,-0.2355 z m 6.4e-4,-0.60253 0.0354,-0.32208 -0.25923,-0.0873 c -0.42324,-0.14242 -0.43871,-0.14212 -0.60034,0.0129 -0.15076,0.1448 -0.44506,0.6278 -0.39574,0.64988 0.0149,0.006 0.26922,0.0428 0.56575,0.0806 0.29651,0.0378 0.54727,0.0724 0.55727,0.0768 0.0362,0.0159 0.0622,-0.0945 0.097,-0.41086 z m 0.13281,-0.68727 c -0.0314,-0.0455 -0.73085,-0.24094 -0.78637,-0.21979 -0.0892,0.0339 0.0454,0.14993 0.31505,0.27138 0.15063,0.0678 0.3081,0.12529 0.35008,0.12751 0.0778,0.005 0.16198,-0.12018 0.1213,-0.1791 z m -1.90708,-1.00718 c -0.0141,-0.0588 -0.006,-0.14787 0.0163,-0.19803 0.0533,-0.11894 0.0108,-1.09904 -0.0503,-1.16038 -0.0718,-0.0721 -0.65613,-0.11625 -0.73466,-0.0555 -0.0776,0.0604 -0.54767,0.84397 -0.53149,0.88653 0.0395,0.10484 0.98942,0.72121 1.15612,0.75073 0.12514,0.0223 0.18081,-0.0641 0.14401,-0.22341 z m -3.57173,7.03919 c 0.2626,-0.82845 0.13781,-1.77179 -0.31897,-2.41214 -0.2714,-0.38038 -0.93839,-0.86568 -1.2706,-0.92446 -0.10399,-0.0183 -0.1278,-0.003 -0.15293,0.0984 -0.0868,0.3498 -0.40101,2.29995 -0.3965,2.46089 0.005,0.18322 0.002,0.18961 -0.12554,0.26075 -0.072,0.0398 -0.16989,0.0785 -0.21762,0.0853 -0.12021,0.0174 -0.26554,-0.1305 -0.30553,-0.31038 -0.0287,-0.12762 -0.0192,-0.158 0.0836,-0.26401 0.10537,-0.10926 0.13193,-0.21217 0.29982,-1.16703 0.10128,-0.57601 0.18706,-1.09725 0.19061,-1.15835 l 0.007,-0.11111 -0.30919,0.0213 c -0.59016,0.0406 -1.38603,0.48048 -1.79722,0.99335 -0.22633,0.28229 -0.58169,1.07539 -0.64432,1.43817 -0.0785,0.4545 -0.039,0.86183 0.13124,1.35254 0.1818,0.52404 0.3542,0.77404 0.75218,1.09021 1.16862,0.92848 2.71842,0.65802 3.68936,-0.64382 0.20761,-0.27853 0.23559,-0.33739 0.38536,-0.80946 z m 2.039,-5.38591 c -0.0656,-0.0653 -0.19429,-0.10857 -0.49903,-0.16723 -0.53499,-0.10313 -1.07207,-0.36423 -1.28809,-0.62622 l -0.14396,-0.17451 -0.84094,0.0252 c -0.46252,0.0139 -0.86387,0.048 -0.89187,0.076 -0.12142,0.12113 -0.0192,0.17514 0.87402,0.46226 1.86102,0.5982 2.55963,0.79792 2.66795,0.76267 0.16168,-0.0525 0.22917,-0.25097 0.12186,-0.35802 z m -2.24724,-1.83274 c -0.47852,-0.36384 -0.7371,-0.64375 -0.84204,-0.90925 l -0.0862,-0.21946 -0.28455,0.18647 c -0.15652,0.10255 -0.29446,0.20758 -0.3066,0.2334 -0.012,0.0258 -0.0204,0.16646 -0.0181,0.31265 0.002,0.14618 -0.0152,0.30893 -0.0387,0.36168 -0.0376,0.0849 -0.0271,0.0992 0.0917,0.12376 0.11755,0.0244 0.13679,0.0493 0.15617,0.20179 0.0127,0.0955 0.008,0.20627 -0.01,0.24589 -0.0173,0.0399 -0.001,0.0856 0.0352,0.10243 0.0372,0.0166 0.39057,0.0209 0.78539,0.009 l 0.71782,-0.0208 0.0793,-0.17744 0.0793,-0.17743 z m -1.61309,-1.6874 c -0.40791,-0.14113 -0.57031,-0.18285 -0.60925,-0.15641 -0.0569,0.0391 -0.032,0.36896 0.0538,0.70793 0.0548,0.21672 0.0984,0.29871 0.16905,0.31908 0.0829,0.0238 0.11351,-0.005 0.2352,-0.2193 0.0769,-0.13562 0.15741,-0.25319 0.17871,-0.2613 0.0214,-0.008 0.0699,-0.0831 0.10701,-0.16733 l 0.0682,-0.15257 z"
         id="path4-4-3-7-0" /></g></g></svg>
